PathFileType	4	(X/Y/Z)	Walk5.trc
DataRate	CameraRate	NumFrames	NumMarkers	Units	OrigDataRate	OrigDataStartFrame	OrigNumFrames
200.000000	200.000000	4	57	mm	200.000000	426	539
Frame#	Times		RBHD		C7		RASI		RACR1		RUA1		RFA1		LFA1		RTH3		RTH2		RWRU		RCAR		RElbow		RBack		LTH2		RTH1		LElbowM		RTB3		RMT1		RTH4		RMT5		RLFC		RTB1		RTB4		LTH4		RTB2		LACR1		LElbow		LWRU		LTH3		CLAV		LTB1		LPSI		T10		RPSI		RWRR		LTH1		LBHD		LLFC		LTB3		LTB4		RToe		LCAL		RFHD		LTB2		LMMAL		LASI		LWRR		LLMAL		RElbowM		LMT1		LToe		RLMAL		RMMAL		LMT5		LUA1		LCAR		RCAL
			X1	Y1	Z1	X2	Y2	Z2	X3	Y3	Z3	X4	Y4	Z4	X5	Y5	Z5	X6	Y6	Z6	X7	Y7	Z7	X8	Y8	Z8	X9	Y9	Z9	X10	Y10	Z10	X11	Y11	Z11	X12	Y12	Z12	X13	Y13	Z13	X14	Y14	Z14	X15	Y15	Z15	X16	Y16	Z16	X17	Y17	Z17	X18	Y18	Z18	X19	Y19	Z19	X20	Y20	Z20	X21	Y21	Z21	X22	Y22	Z22	X23	Y23	Z23	X24	Y24	Z24	X25	Y25	Z25	X26	Y26	Z26	X27	Y27	Z27	X28	Y28	Z28	X29	Y29	Z29	X30	Y30	Z30	X31	Y31	Z31	X32	Y32	Z32	X33	Y33	Z33	X34	Y34	Z34	X35	Y35	Z35	X36	Y36	Z36	X37	Y37	Z37	X38	Y38	Z38	X39	Y39	Z39	X40	Y40	Z40	X41	Y41	Z41	X42	Y42	Z42	X43	Y43	Z43	X44	Y44	Z44	X45	Y45	Z45	X46	Y46	Z46	X47	Y47	Z47	X48	Y48	Z48	X49	Y49	Z49	X50	Y50	Z50	X51	Y51	Z51	X52	Y52	Z52	X53	Y53	Z53	X54	Y54	Z54	X55	Y55	Z55	X56	Y56	Z56	X57	Y57	Z57

426	2.13	611.87	1570.2	432.85	575	1435.2	350.01	653.46	932.84	470.29	622.72	1379.4	500.79	537.1	1197.9	568.39	478.55	937.07	612.65	689.14	1008.5	23.951	715.85	560.94	502.66	738.09	676.82	485.45	449.22	808.31	602.89	482.8	749.72	618.58	465.25	1083.4	583.19	491.06	1343.6	428.87	646.41	635.7	185.28	639.12	733.58	522.84	533.65	1107.8	113.28	852.23	206.52	416.3	978.58	79.118	383.55	677.57	647.18	516.57	952.09	66.334	462.85	752.03	469.67	485.43	813.6	393.06	409.4	834.43	302.5	414.97	584.53	644.11	139.18	815.35	298.21	485.11	627.26	1430.7	178.41	565.8	1116	37.759	706.27	890.4	29.438	565.95	557.35	153.93	707.49	1350.4	342.72	531.78	347.49	234.93	484.68	957.73	259.83	474.9	1127.9	315.12	476.74	955.56	364.45	524.63	798.13	584.52	604.45	739.01	131.37	599.61	1569.8	293.82	525.06	443.22	169.95	455.75	178.93	250.49	491.89	263.78	242.73	1017.7	102.1	412.67	298.63	43.838	264.15	792.88	1599	383.66	471.98	266.98	173.97	382.17	94.531	310.7	660.87	941.71	166.9	765.69	927.37	74.32	356.71	80.011	220.66	455.99	1061.8	488.4	509.33	33.683	302.01	557.65	25.23	290.86	819.26	89.936	455.85	846.26	111.69	371.63	483.16	31.478	210.8	596.12	1243.8	67.615	790.47	879.69	27.166	789.08	29.813	412.56
427	2.135	618.24	1568.9	434.1	581.36	1434.1	351.08	660.13	931.77	471.09	628.96	1377.9	501.52	542.56	1196.8	569.17	483.24	936.23	612.89	697.26	1008.5	24.68	720.95	559.26	503.05	743.68	675.13	485.8	453.32	807.3	603.04	486.5	749.22	618.92	470.51	1082.3	583.48	497.12	1342.3	429.54	651.04	634.62	185.84	644.7	731.99	523.61	540.64	1106.9	113.53	864.22	207.73	417.11	993.04	81.976	383.62	683.04	645.46	516.76	967.15	69.19	463.5	758.36	468.68	485.92	821.4	393.36	409.54	844.05	303.27	415.52	589.21	643.41	139.67	825.8	298.94	485.63	633.79	1429.9	179.34	572.84	1115.3	38.224	715.18	890.69	30.525	570.03	556.79	154.31	713.96	1349.3	343.71	534.56	346.86	235.34	490.83	956.71	260.84	481.25	1126.7	315.79	483.24	954.3	365.46	528.63	796.94	585.49	609.83	738.49	132.22	605.57	1568.5	295.09	528.23	442.91	170.45	456.89	178.91	250.63	493.72	263.48	243.04	1031.9	105.58	412.38	298.85	45.031	264.14	799.21	1597.8	384.63	473.79	266.96	174.32	382.69	95.13	310.76	666.88	940.66	167.65	774.42	928.11	75.229	357.1	80.891	220.85	461.54	1061	488.57	509.38	33.686	301.97	557.67	25.141	290.89	834.06	90.679	457.02	859.93	112.52	372.75	483.11	31.481	210.82	603.13	1242.8	68.394	799.71	880.8	28.14	804.43	29.767	414.07
428	2.14	624.41	1567.6	435.54	587.58	1432.7	351.97	666.91	930.58	471.81	634.92	1376.8	502.43	548.33	1195.6	569.66	487.72	935.04	613.24	705.29	1008.5	25.566	726.69	557.8	503.6	749.2	673.55	486.02	457.22	806.53	603.3	490.57	747.88	619.2	475.9	1081.3	583.66	503.41	1340.9	430.07	655.95	633.56	186.3	650.49	730.35	524.16	547.88	1106	113.91	875.29	208.68	417.85	1006.7	84.838	383.64	688.57	643.87	517.51	981.48	71.745	463.8	764.93	467.92	486.26	829.08	393.38	409.96	853.62	303.89	415.94	593.89	642.78	140.19	835.85	299.45	486.34	640.66	1428.8	180.23	580.09	1114.3	38.587	724.12	890.83	31.444	574.35	556.38	154.72	720.18	1348.1	344.67	537.26	346.27	235.65	497.25	955.2	261.69	487.73	1125.5	316.52	489.81	953.34	366.46	532.83	796.16	586.54	615.43	738.09	133.03	611.76	1567.5	296.4	531.41	442.58	170.97	457.99	179.03	250.81	495.63	263.31	243.37	1045.4	108.88	412.04	298.93	46.482	264.27	805.38	1596.6	385.66	475.64	267.04	174.68	383.46	95.831	310.77	672.77	939.68	168.49	782.94	928.75	76.223	357.63	81.93	220.96	467.27	1060.1	489	509.49	33.763	301.94	557.74	25.084	290.98	847.81	91.405	458	872.82	113.41	373.69	483.01	31.51	210.91	610.33	1242	68.914	808.41	881.61	29.235	818.81	29.555	415.35
429	2.145	630.62	1566.2	436.83	593.79	1431.6	352.55	673.51	929.47	472.63	641.02	1375.4	503.22	554.08	1194.6	570.11	492.44	934.28	613.78	713.35	1008.5	26.401	732.74	556.29	503.97	754.64	672	486.49	461.69	805.64	603.5	494.78	746.86	619.21	481.02	1080.3	584.04	509.42	1340	430.66	660.6	632.6	186.92	656.16	728.76	525.03	554.98	1104.9	114.58	886.08	209.55	418.36	1019.6	87.631	383.78	694.61	642.51	518.27	995.07	74.204	463.98	771.9	467.35	486.76	836.95	393.43	410.46	862.96	304.25	416.5	598.87	642.37	140.66	845.63	299.86	487.03	647.31	1427.8	181.29	587.24	1113.5	39.067	732.8	891.09	32.034	578.32	555.99	155.28	726.45	1346.9	345.55	540.22	345.81	235.88	503.57	953.93	263.03	493.98	1124.5	317.6	496.45	951.91	367.82	537.2	795.98	587.19	620.84	737.41	133.6	617.89	1566.1	297.54	534.89	442.41	171.34	459.51	179.24	251.01	497.65	263.09	243.63	1058.2	112.19	411.85	299.17	47.874	264.66	811.57	1595.5	386.64	477.72	267.25	174.96	384.1	96.627	310.85	678.33	938.62	169.16	791.23	929.25	77.227	358.2	83.015	221.1	472.72	1058.9	489.31	509.58	33.783	301.95	557.77	25.009	291.01	860.89	92.096	458.8	885.11	114.28	374.38	482.98	31.511	210.94	617.14	1241.3	69.584	817.04	882.36	30.427	832.58	29.525	416.36
